<?xml version="1.0" encoding="UTF-8"?>
<!DOCTYPE svg PUBLIC "-//W3C//DTD SVG 1.0//EN" "http://www.w3.org/TR/2001/REC-SVG-20010904/DTD/svg10.dtd">
<svg fill="none" height="530" style="fill: none;" viewBox="0 0 538 530" width="538" xmlns="http://www.w3.org/2000/svg" xmlns:xlink="http://www.w3.org/1999/xlink"><path d="M482 271.023C482 377.744 395.486 464.258 288.766 464.258C182.045 464.258 95.5314 377.744 95.5314 271.023C95.5314 164.303 182.045 77.789 288.766 77.789C395.486 77.789 482 164.303 482 271.023Z" fill="url(#a)"/><g id="change1_1"><path d="M267.765 365.023C271.548 368.311 275.247 367.874 278.864 363.714L409.468 213.471C413.085 209.31 413.002 205.586 409.22 202.298L398.78 193.223C394.997 189.934 391.298 190.371 387.681 194.532L267.829 332.405L192.594 267.005C188.433 263.388 184.873 263.281 181.914 266.686L174.614 275.083C171.655 278.487 172.256 281.998 176.417 285.615L267.765 365.023Z" fill="#fff"/></g><defs><linearGradient gradientUnits="userSpaceOnUse" id="a" x1="288.766" x2="288.766" y1="77.789" y2="464.258"><stop stop-color="#1A87EF"/><stop offset="1" stop-color="#1A87EF"/></linearGradient></defs></svg>